<svg xmlns="http://www.w3.org/2000/svg" xmlns:xlink="http://www.w3.org/1999/xlink" preserveAspectRatio="xMidYMid" width="128" height="45" viewBox="0 0 128 45">
  <defs>
    <style>
      .cls-1 {
        fill: #fff;
        fill-rule: evenodd;
      }
    </style>
  </defs>
  <path d="M127.495,10.648 L127.153,9.705 L125.618,9.705 L125.271,10.648 L124.765,10.648 L126.182,6.988 L126.607,6.988 L128.001,10.648 L127.495,10.648 ZM126.401,7.624 L126.386,7.624 L125.772,9.290 L127.005,9.290 L126.401,7.624 ZM123.029,10.962 L124.559,6.988 L124.979,6.988 L123.452,10.962 L123.029,10.962 ZM121.537,8.607 C121.923,8.702 122.216,8.843 122.418,9.029 C122.619,9.215 122.720,9.445 122.720,9.720 C122.720,10.015 122.599,10.252 122.357,10.432 C122.116,10.611 121.800,10.700 121.411,10.700 C121.046,10.700 120.722,10.601 120.441,10.402 C120.160,10.204 120.024,9.939 120.032,9.607 L120.038,9.592 L120.511,9.592 C120.511,9.827 120.597,10.005 120.770,10.127 C120.942,10.250 121.156,10.311 121.411,10.311 C121.661,10.311 121.859,10.258 122.005,10.153 C122.151,10.048 122.224,9.906 122.224,9.726 C122.224,9.560 122.161,9.420 122.035,9.308 C121.910,9.195 121.686,9.100 121.366,9.024 C120.979,8.932 120.676,8.796 120.459,8.615 C120.242,8.436 120.133,8.210 120.133,7.938 C120.133,7.652 120.250,7.414 120.484,7.222 C120.718,7.030 121.021,6.935 121.394,6.935 C121.795,6.935 122.114,7.044 122.351,7.264 C122.588,7.484 122.703,7.738 122.694,8.028 L122.689,8.043 L122.216,8.043 C122.216,7.829 122.146,7.655 122.004,7.523 C121.862,7.390 121.659,7.324 121.394,7.324 C121.147,7.324 120.958,7.380 120.826,7.491 C120.695,7.603 120.629,7.748 120.629,7.928 C120.629,8.087 120.700,8.220 120.843,8.326 C120.985,8.433 121.217,8.526 121.537,8.607 ZM119.497,33.002 C116.854,34.106 113.793,34.658 110.314,34.658 C103.596,34.658 99.656,31.917 98.493,26.435 C98.235,25.217 98.120,23.948 98.148,22.628 C98.146,18.737 99.130,15.666 101.104,13.416 C103.076,11.166 106.154,10.040 110.335,10.040 C113.077,10.040 115.224,10.548 116.776,11.563 C118.328,12.578 119.291,13.966 119.664,15.725 C119.800,16.368 119.857,16.961 119.835,17.501 C119.807,23.187 115.078,26.181 105.650,26.486 C106.648,29.092 108.826,30.394 112.185,30.394 C114.241,30.394 116.427,29.972 118.744,29.129 L118.745,29.130 C118.840,29.094 118.943,29.074 119.051,29.074 C119.538,29.074 119.933,29.469 119.933,29.958 C119.933,29.958 119.933,29.958 119.933,29.959 C119.996,30.541 120.069,31.222 120.127,31.758 C120.185,32.290 119.744,32.899 119.497,33.002 ZM113.359,16.537 C113.021,14.947 111.961,14.152 110.179,14.152 C108.637,14.152 107.377,14.795 106.399,16.081 C105.420,17.367 104.931,19.380 104.930,22.120 L104.913,22.527 C111.362,22.392 114.177,20.395 113.359,16.537 ZM99.335,33.192 C99.439,33.304 99.503,33.454 99.503,33.619 C99.503,33.967 99.221,34.249 98.873,34.249 C98.873,34.249 98.873,34.249 98.873,34.249 C97.310,34.510 95.461,34.705 94.241,34.705 C92.009,34.705 90.369,34.196 89.322,33.175 C88.274,32.155 87.751,30.404 87.751,27.921 L87.775,27.920 C87.775,27.853 87.775,23.433 87.775,19.789 C87.775,18.460 87.775,17.235 87.775,16.362 L87.778,16.360 C87.777,16.348 87.776,16.336 87.776,16.324 C87.776,15.905 88.115,15.566 88.533,15.566 C88.616,15.566 88.696,15.580 88.772,15.606 L88.774,15.604 C90.258,16.017 92.818,16.250 94.081,16.324 C94.465,16.324 94.781,16.610 94.830,16.980 L94.837,16.986 C94.837,17.014 94.837,17.044 94.837,17.073 C94.837,17.076 94.838,17.079 94.838,17.082 C94.838,17.084 94.837,17.087 94.837,17.090 C94.837,17.891 94.836,19.156 94.836,20.534 C94.834,23.705 94.832,27.462 94.832,27.462 L94.808,27.464 C94.808,28.585 95.014,29.359 95.426,29.783 C95.961,30.362 96.724,30.506 97.234,30.462 L97.235,30.464 C97.535,30.464 97.786,30.674 97.849,30.955 L97.864,30.967 C98.240,32.004 98.820,32.718 99.338,33.185 L99.335,33.192 ZM91.231,15.086 C89.314,15.086 87.760,13.534 87.760,11.620 C87.760,9.705 89.314,8.154 91.231,8.154 C93.148,8.154 94.702,9.705 94.702,11.620 C94.702,13.534 93.148,15.086 91.231,15.086 ZM86.294,28.869 C86.289,28.995 86.286,29.121 86.286,29.247 C86.286,31.415 87.082,33.363 88.348,34.707 C86.664,34.707 82.551,34.707 81.195,34.707 L81.006,34.753 C81.006,34.753 71.919,34.753 68.001,34.753 C66.924,34.753 66.237,33.435 66.237,32.289 C66.237,30.005 70.448,20.224 77.823,15.148 C77.823,15.148 72.014,15.148 69.030,15.148 C67.999,15.148 67.305,14.674 67.305,13.997 C67.305,13.062 67.305,12.494 67.305,11.496 C67.305,10.685 67.958,10.089 69.025,10.089 C72.763,10.089 79.697,10.089 83.381,10.089 C84.413,10.089 85.042,10.686 85.042,11.453 C85.042,12.838 85.042,14.023 85.042,14.023 C84.991,15.735 75.980,24.110 74.591,28.871 L75.982,28.869 C75.982,28.869 82.275,28.869 86.294,28.869 ZM64.574,34.499 C64.574,34.501 64.573,34.502 64.573,34.502 C63.588,34.643 62.585,34.705 61.479,34.705 C59.246,34.705 57.607,34.196 56.560,33.175 C55.511,32.155 54.988,30.404 54.988,27.921 C54.988,27.921 54.988,23.460 54.988,19.789 C54.988,18.460 54.988,17.235 54.988,16.362 L54.991,16.360 C54.990,16.348 54.989,16.336 54.989,16.325 C54.989,15.906 55.328,15.567 55.747,15.567 C55.830,15.567 55.910,15.581 55.985,15.606 L55.987,15.604 C57.471,16.017 60.031,16.250 61.294,16.324 C61.295,16.324 61.296,16.324 61.296,16.324 C61.681,16.324 61.998,16.611 62.047,16.983 L62.051,16.986 C62.051,16.998 62.051,17.011 62.051,17.023 C62.052,17.042 62.054,17.062 62.054,17.082 C62.054,17.102 62.052,17.122 62.051,17.141 C62.050,17.944 62.050,19.186 62.049,20.534 C62.048,23.705 62.046,27.462 62.046,27.462 C62.046,28.584 62.252,29.358 62.664,29.783 C63.066,30.219 63.450,30.440 63.817,30.462 L63.821,30.467 C64.149,30.499 64.409,30.760 64.442,31.088 L64.447,31.093 C64.453,31.919 64.491,32.947 64.825,33.744 C64.825,33.743 64.824,33.744 64.822,33.746 C64.902,33.826 64.952,33.937 64.952,34.060 C64.952,34.283 64.788,34.468 64.574,34.499 ZM58.468,15.086 C56.551,15.086 54.997,13.534 54.997,11.620 C54.997,9.705 56.551,8.154 58.468,8.154 C60.386,8.154 61.940,9.705 61.940,11.620 C61.940,13.534 60.386,15.086 58.468,15.086 ZM24.638,12.459 C26.362,12.459 27.867,13.846 27.867,15.634 C27.867,17.349 26.362,18.845 24.638,18.845 C22.840,18.845 21.409,17.349 21.409,15.634 C21.409,13.846 22.840,12.459 24.638,12.459 ZM23.399,28.966 C23.860,28.966 24.425,28.714 25.064,28.229 C25.195,28.131 25.637,27.985 25.890,28.104 C26.297,28.295 26.914,28.585 27.368,28.799 C27.711,28.960 27.627,29.423 27.457,29.587 C25.597,31.388 23.546,32.542 21.344,32.542 C18.005,32.542 15.657,29.914 18.336,23.310 C18.336,23.310 19.034,21.940 19.477,21.073 C19.681,20.671 20.255,20.377 20.874,20.377 C22.015,20.377 23.820,20.377 24.858,20.377 C25.346,20.377 25.499,20.727 25.266,21.218 C24.719,22.368 23.803,24.295 23.803,24.295 C22.115,28.455 22.775,28.966 23.399,28.966 ZM18.751,44.684 C6.506,42.618 -1.747,31.012 0.318,18.760 C2.382,6.509 13.982,-1.749 26.227,0.317 C32.141,1.314 37.123,4.537 40.462,8.984 L40.426,8.941 C40.932,9.592 41.130,10.589 40.982,11.467 C40.703,13.128 39.132,14.247 37.473,13.967 C36.720,13.840 36.088,13.557 35.639,13.026 C33.233,9.716 29.580,7.308 25.227,6.573 C16.401,5.085 8.041,11.036 6.553,19.867 C5.065,28.697 11.013,37.063 19.839,38.551 C28.665,40.040 37.026,34.089 38.514,25.258 C39.154,21.457 38.411,17.759 36.659,14.642 L36.668,14.633 C36.665,14.625 36.656,14.619 36.656,14.609 C36.656,14.549 36.712,14.500 36.781,14.500 C36.787,14.500 36.790,14.505 36.795,14.505 L36.814,14.487 C37.184,14.729 37.613,14.820 38.160,14.912 C39.818,15.192 41.390,14.073 41.669,12.412 C41.739,11.994 41.749,11.524 41.666,11.102 C41.665,11.098 41.656,11.098 41.656,11.094 C41.656,11.059 41.691,11.031 41.734,11.031 C41.778,11.031 41.813,11.059 41.813,11.094 C41.813,11.095 41.809,11.095 41.809,11.097 L41.820,11.097 C44.435,15.511 45.580,20.784 44.661,26.240 C42.596,38.492 30.996,46.749 18.751,44.684 Z" class="cls-1"/>
</svg>
