<svg xmlns="http://www.w3.org/2000/svg" xmlns:xlink="http://www.w3.org/1999/xlink" preserveAspectRatio="xMidYMid" width="76" height="76" viewBox="0 0 76 76">
  <defs>
    <style>
      .cls-1 {
        fill: #efefef;
        fill-rule: evenodd;
      }
    </style>
  </defs>
  <path d="M38.002,76.001 C17.019,76.001 0.009,58.991 0.009,38.007 C0.009,17.024 17.019,0.014 38.002,0.014 C58.985,0.014 75.996,17.024 75.996,38.007 C75.996,58.991 58.986,76.001 38.002,76.001 ZM38.002,2.782 C18.548,2.782 2.776,18.553 2.776,38.007 C2.776,50.271 9.043,61.070 18.549,67.378 C24.122,71.077 30.810,67.194 38.002,67.194 C45.186,67.194 51.869,71.081 57.441,67.387 C66.956,61.081 73.228,50.277 73.228,38.007 C73.228,18.553 57.457,2.782 38.002,2.782 ZM37.750,45.405 L25.087,32.741 L27.222,30.607 L37.751,41.134 L48.781,30.104 L50.917,32.238 L39.885,43.270 L37.750,45.405 Z" class="cls-1"/>
</svg>
