<svg xmlns="http://www.w3.org/2000/svg" xmlns:xlink="http://www.w3.org/1999/xlink" preserveAspectRatio="xMidYMid" width="62" height="59" viewBox="0 0 62 59">
  <defs>
    <style>
      .cls-1 {
        fill: #efefef;
        fill-rule: evenodd;
      }
    </style>
  </defs>
  <path d="M62.000,32.066 C62.000,37.866 57.637,42.788 51.848,43.515 C51.796,43.525 51.742,43.525 51.688,43.525 C51.045,43.525 50.492,43.048 50.407,42.401 C50.316,41.703 50.817,41.056 51.528,40.969 C56.028,40.399 59.422,36.578 59.422,32.066 C59.422,28.843 57.707,25.938 54.839,24.311 C54.405,24.067 54.155,23.600 54.188,23.110 C54.230,22.525 54.256,22.173 54.256,21.814 C54.256,11.202 45.566,2.567 34.884,2.567 C26.026,2.567 18.312,8.525 16.127,17.064 C15.975,17.651 15.432,18.044 14.815,18.029 C14.673,18.021 14.536,18.006 14.396,17.982 C7.729,17.931 2.586,23.138 2.586,29.497 C2.586,35.284 6.939,40.202 12.709,40.938 C13.417,41.028 13.918,41.669 13.828,42.375 C13.738,43.078 13.105,43.587 12.381,43.486 C5.321,42.586 0.000,36.573 0.003,29.500 C0.003,21.824 6.213,15.560 13.911,15.401 C16.724,6.280 25.199,0.000 34.879,0.000 C46.986,0.000 56.834,9.786 56.834,21.814 C56.834,22.047 56.826,22.281 56.813,22.512 C60.032,24.647 62.000,28.237 62.000,32.066 ZM19.390,17.939 L45.222,17.939 C45.935,17.939 46.514,18.514 46.514,19.222 L46.514,57.717 C46.514,58.425 45.935,59.000 45.222,59.000 L19.390,59.000 C18.677,59.000 18.098,58.425 18.098,57.717 L18.098,19.222 C18.098,18.514 18.677,17.939 19.390,17.939 ZM20.681,56.434 L43.930,56.434 L43.930,20.505 L20.681,20.505 L20.681,56.434 ZM40.056,43.602 L24.556,43.602 C23.843,43.602 23.265,43.027 23.265,42.319 L23.265,24.355 C23.265,23.646 23.843,23.072 24.556,23.072 L40.056,23.072 C40.769,23.072 41.347,23.646 41.347,24.355 L41.347,42.319 C41.347,43.027 40.769,43.602 40.056,43.602 ZM38.764,25.638 L25.848,25.638 L25.848,41.036 L38.764,41.036 L38.764,25.638 ZM32.306,47.451 C34.442,47.451 36.181,49.178 36.181,51.301 C36.181,53.423 34.442,55.150 32.306,55.150 C30.170,55.150 28.431,53.423 28.431,51.301 C28.431,49.178 30.170,47.451 32.306,47.451 ZM32.306,52.584 C33.019,52.584 33.598,52.004 33.598,51.301 C33.598,50.598 33.019,50.018 32.306,50.018 C31.593,50.018 31.014,50.598 31.014,51.301 C31.014,52.004 31.593,52.584 32.306,52.584 Z" class="cls-1"/>
</svg>
