<svg xmlns="http://www.w3.org/2000/svg" xmlns:xlink="http://www.w3.org/1999/xlink" preserveAspectRatio="xMidYMid" width="57" height="64" viewBox="0 0 57 64">
  <defs>
    <style>
      .cls-1 {
        fill: #efefef;
        fill-rule: evenodd;
      }
    </style>
  </defs>
  <path d="M43.201,36.833 C40.865,38.963 38.450,40.881 36.132,42.566 L30.110,61.061 L23.319,50.448 C22.934,50.642 22.690,50.760 22.631,50.788 L21.906,51.135 L11.235,42.310 L11.442,41.526 C11.458,41.468 11.518,41.244 11.620,40.889 L0.009,36.091 L17.428,25.909 C18.563,23.572 19.858,21.145 21.340,18.743 C30.377,4.096 41.663,-2.154 53.976,0.669 L54.593,0.810 L54.848,1.390 C59.952,12.974 55.925,25.230 43.201,36.833 ZM29.363,55.208 L32.705,44.944 C29.875,46.820 27.370,48.273 25.560,49.265 L29.363,55.208 ZM5.682,35.701 L12.366,38.464 C12.911,36.784 13.704,34.521 14.758,31.915 L15.354,30.048 L5.682,35.701 ZM52.791,2.999 C33.705,-0.862 22.114,20.494 16.992,33.215 L14.321,41.583 L17.896,44.539 L22.260,48.149 C22.679,47.934 23.288,47.613 24.018,47.213 L33.836,41.055 C45.188,32.968 59.373,19.044 52.791,2.999 ZM36.386,22.661 C33.516,20.288 33.109,16.017 35.478,13.140 C37.847,10.263 42.109,9.853 44.979,12.226 C47.848,14.599 48.256,18.871 45.887,21.747 C43.519,24.625 39.256,25.035 36.386,22.661 ZM43.942,20.138 C45.426,18.338 45.170,15.663 43.373,14.177 C41.576,12.691 38.907,12.947 37.424,14.748 C35.940,16.550 36.195,19.225 37.992,20.711 C39.789,22.197 42.458,21.941 43.942,20.138 ZM15.543,48.553 C17.158,49.889 17.388,52.292 16.054,53.911 L15.841,54.117 L2.772,63.992 L10.197,49.067 C11.530,47.448 13.928,47.217 15.543,48.553 ZM14.183,52.202 C14.546,51.664 14.446,50.925 13.936,50.503 C13.425,50.081 12.682,50.124 12.223,50.585 L9.773,55.536 L14.183,52.202 Z" class="cls-1"/>
</svg>
