<svg xmlns="http://www.w3.org/2000/svg" xmlns:xlink="http://www.w3.org/1999/xlink" preserveAspectRatio="xMidYMid" width="71.969" height="55.97" viewBox="0 0 71.969 55.97">
  <defs>
    <style>
      .cls-1 {
        fill: #efefef;
        fill-rule: evenodd;
      }
    </style>
  </defs>
  <path d="M69.099,55.979 L2.873,55.979 L-0.009,55.979 L-0.009,53.022 L-0.009,2.942 L-0.009,-0.015 L2.873,-0.015 L69.099,-0.015 L71.981,-0.015 L71.981,2.942 L71.981,53.022 L71.981,55.979 L69.099,55.979 ZM70.237,2.887 L1.735,2.887 L1.735,53.077 L70.237,53.077 L70.237,2.887 ZM62.016,9.441 L62.487,9.441 L62.487,9.912 L62.487,46.028 L62.487,46.498 L62.016,46.498 L10.120,46.498 L9.681,46.498 L9.681,46.028 L9.681,9.912 L9.681,9.441 L10.120,9.441 L62.016,9.441 ZM10.591,45.557 L61.545,45.557 L61.545,10.382 L10.591,10.382 L10.591,45.557 ZM59.398,32.687 C59.680,33.000 59.954,33.318 60.230,33.637 C59.823,33.746 59.407,33.831 58.997,33.925 C59.158,34.319 59.340,34.704 59.492,35.102 C59.073,35.059 58.654,35.026 58.238,34.980 C58.262,35.405 58.304,35.827 58.338,36.251 C57.949,36.084 57.563,35.911 57.171,35.760 C57.129,35.954 57.053,36.160 57.135,36.354 C57.812,38.386 58.496,40.415 59.185,42.444 C58.632,42.126 58.101,41.777 57.551,41.459 C57.266,42.002 56.998,42.554 56.698,43.087 C56.658,42.966 56.628,42.842 56.598,42.717 C56.178,40.882 55.735,39.050 55.319,37.216 C55.291,37.216 55.264,37.216 55.240,37.216 C54.909,38.656 54.566,40.094 54.231,41.531 C54.107,42.041 54.010,42.557 53.861,43.057 C53.560,42.523 53.299,41.971 53.010,41.431 C52.461,41.753 51.929,42.098 51.380,42.417 C52.078,40.400 52.728,38.368 53.421,36.351 C53.484,36.157 53.436,35.951 53.387,35.760 C52.992,35.911 52.606,36.087 52.218,36.251 C52.245,35.827 52.297,35.405 52.321,34.977 C51.902,35.020 51.486,35.056 51.067,35.102 C51.228,34.707 51.404,34.319 51.562,33.925 C51.155,33.831 50.742,33.746 50.335,33.643 C50.602,33.315 50.890,33.003 51.164,32.681 C50.793,32.472 50.429,32.257 50.067,32.026 C50.435,31.814 50.790,31.592 51.161,31.389 C50.890,31.059 50.590,30.755 50.332,30.416 C50.742,30.328 51.152,30.231 51.562,30.146 C51.401,29.755 51.231,29.363 51.067,28.972 C51.489,28.993 51.908,29.042 52.324,29.087 C52.303,28.666 52.254,28.244 52.224,27.822 C52.613,27.980 52.995,28.162 53.390,28.305 C53.481,27.892 53.585,27.483 53.664,27.068 C53.988,27.346 54.295,27.647 54.639,27.905 C54.845,27.537 55.064,27.177 55.285,26.818 C55.501,27.186 55.711,27.559 55.944,27.917 C56.248,27.616 56.579,27.349 56.895,27.065 C56.980,27.483 57.077,27.899 57.174,28.317 C57.560,28.150 57.949,27.983 58.338,27.822 C58.320,28.244 58.265,28.666 58.235,29.087 C58.654,29.042 59.073,29.005 59.492,28.972 C59.331,29.366 59.158,29.755 58.994,30.146 C59.407,30.231 59.817,30.325 60.227,30.416 C59.966,30.749 59.668,31.050 59.413,31.389 C59.768,31.604 60.130,31.814 60.491,32.026 C60.133,32.257 59.762,32.469 59.398,32.687 ZM57.998,29.976 C57.366,29.063 56.233,28.529 55.128,28.596 C54.119,28.629 53.141,29.154 52.564,29.979 C51.917,30.859 51.774,32.069 52.148,33.091 C52.403,33.825 52.950,34.447 53.621,34.835 C54.566,35.377 55.780,35.402 56.762,34.929 C57.299,34.674 57.749,34.252 58.083,33.761 C58.824,32.639 58.793,31.062 57.998,29.976 ZM55.838,34.974 C54.639,35.208 53.326,34.656 52.679,33.616 C51.969,32.563 52.026,31.071 52.804,30.067 C53.326,29.351 54.180,28.896 55.067,28.839 C56.263,28.736 57.481,29.424 58.022,30.495 C58.295,30.992 58.389,31.568 58.362,32.129 C58.307,33.506 57.199,34.753 55.838,34.974 ZM50.990,20.696 C47.910,19.752 43.207,18.831 36.674,18.765 L36.699,17.135 C43.376,17.207 48.241,18.202 51.467,19.191 C54.817,20.218 56.491,21.298 56.491,21.298 L55.612,22.602 C55.612,22.602 54.186,21.676 50.990,20.696 ZM25.749,19.568 L25.422,17.988 C27.670,17.581 30.304,17.274 33.384,17.160 C33.440,17.158 33.503,17.162 33.560,17.160 L33.535,18.790 C30.523,18.893 27.938,19.190 25.749,19.568 ZM16.305,22.602 L15.426,21.298 C15.426,21.298 17.074,20.218 20.424,19.191 C21.008,19.012 21.666,18.840 22.358,18.665 L22.684,20.195 C22.035,20.356 21.421,20.529 20.876,20.696 C17.680,21.676 16.305,22.602 16.305,22.602 ZM25.849,38.403 L13.793,38.403 L13.793,37.601 L25.849,37.601 L25.849,38.403 ZM25.849,42.416 L13.793,42.416 L13.793,41.613 L25.849,41.613 L25.849,42.416 Z" class="cls-1"/>
</svg>
