<svg xmlns="http://www.w3.org/2000/svg" xmlns:xlink="http://www.w3.org/1999/xlink" preserveAspectRatio="xMidYMid" width="45" height="59" viewBox="0 0 45 59">
  <defs>
    <style>
      .cls-1 {
        fill: #efefef;
        fill-rule: evenodd;
      }
    </style>
  </defs>
  <path d="M0.000,59.000 L0.000,0.000 L45.000,0.000 L45.000,59.000 L0.000,59.000 ZM42.000,3.000 L3.000,3.000 L3.000,56.000 L42.000,56.000 L42.000,3.000 ZM6.298,6.000 L38.931,6.000 C39.662,6.000 40.236,6.575 40.236,7.306 L40.236,17.750 C40.236,18.481 39.662,19.056 38.931,19.056 L6.298,19.056 C5.567,19.056 4.992,18.481 4.992,17.750 L4.992,7.306 C4.992,6.575 5.567,6.000 6.298,6.000 ZM7.603,16.445 L37.626,16.445 L37.626,8.611 L7.603,8.611 L7.603,16.445 ZM7.603,24.278 C9.065,24.278 10.214,25.427 10.214,26.889 C10.214,28.351 9.065,29.500 7.603,29.500 C6.141,29.500 4.992,28.351 4.992,26.889 C4.992,25.427 6.141,24.278 7.603,24.278 ZM7.603,32.111 C9.065,32.111 10.214,33.260 10.214,34.722 C10.214,36.185 9.065,37.334 7.603,37.334 C6.141,37.334 4.992,36.185 4.992,34.722 C4.992,33.260 6.141,32.111 7.603,32.111 ZM7.603,39.945 C9.065,39.945 10.214,41.093 10.214,42.556 C10.214,44.018 9.065,45.167 7.603,45.167 C6.141,45.167 4.992,44.018 4.992,42.556 C4.992,41.093 6.141,39.945 7.603,39.945 ZM7.603,47.778 C9.065,47.778 10.214,48.927 10.214,50.389 C10.214,51.851 9.065,53.000 7.603,53.000 C6.141,53.000 4.992,51.851 4.992,50.389 C4.992,48.927 6.141,47.778 7.603,47.778 ZM14.130,25.584 L38.931,25.584 C39.662,25.584 40.236,26.158 40.236,26.889 C40.236,27.620 39.662,28.195 38.931,28.195 L14.130,28.195 C13.399,28.195 12.824,27.620 12.824,26.889 C12.824,26.158 13.399,25.584 14.130,25.584 ZM14.130,33.417 L38.931,33.417 C39.662,33.417 40.236,33.991 40.236,34.722 C40.236,35.453 39.662,36.028 38.931,36.028 L14.130,36.028 C13.399,36.028 12.824,35.453 12.824,34.722 C12.824,33.991 13.399,33.417 14.130,33.417 ZM14.130,41.250 L38.931,41.250 C39.662,41.250 40.236,41.825 40.236,42.556 C40.236,43.287 39.662,43.861 38.931,43.861 L14.130,43.861 C13.399,43.861 12.824,43.287 12.824,42.556 C12.824,41.825 13.399,41.250 14.130,41.250 ZM14.130,49.084 L38.931,49.084 C39.662,49.084 40.236,49.658 40.236,50.389 C40.236,51.120 39.662,51.695 38.931,51.695 L14.130,51.695 C13.399,51.695 12.824,51.120 12.824,50.389 C12.824,49.658 13.399,49.084 14.130,49.084 Z" class="cls-1"/>
</svg>
